<?xml version="1.0" encoding="UTF-8"?>
<svg xmlns="http://www.w3.org/2000/svg" xmlns:xlink="http://www.w3.org/1999/xlink" width="27px" height="24px" viewBox="0 0 27 24" version="1.1">
<g id="surface1">
<path style=" stroke:none;fill-rule:nonzero;fill:rgb(96.862745%,96.862745%,96.862745%);fill-opacity:1;" d="M 25.253906 5.816406 C 24.972656 4.707031 24.144531 3.835938 23.085938 3.539062 C 21.171875 3 13.5 3 13.5 3 C 13.5 3 5.828125 3 3.914062 3.539062 C 2.855469 3.835938 2.027344 4.707031 1.746094 5.816406 C 1.230469 7.832031 1.230469 12.019531 1.230469 12.019531 C 1.230469 12.019531 1.230469 16.210938 1.746094 18.21875 C 2.027344 19.332031 2.855469 20.164062 3.914062 20.460938 C 5.828125 21 13.5 21 13.5 21 C 13.5 21 21.171875 21 23.085938 20.460938 C 24.144531 20.164062 24.972656 19.324219 25.253906 18.21875 C 25.769531 16.210938 25.769531 12.019531 25.769531 12.019531 C 25.769531 12.019531 25.769531 7.824219 25.253906 5.816406 Z M 10.996094 15.824219 L 10.996094 8.214844 L 17.402344 12.019531 Z M 10.996094 15.824219 "/>
</g>
</svg>
