<svg height="42px" width="42px" version="1.1" id="Layer_1" xmlns="http://www.w3.org/2000/svg" xmlns:xlink="http://www.w3.org/1999/xlink" viewBox="0 0 336 336" xml:space="preserve" fill="#000000" stroke="#000000"><g id="SVGRepo_bgCarrier" stroke-width="0"/><g id="SVGRepo_tracerCarrier" stroke-linecap="round" stroke-linejoin="round"/><g id="SVGRepo_iconCarrier"><path style="fill:#ed0231;" d="M322.904 70.067c-12.129 -14.418 -34.521 -20.298 -77.287 -20.298H90.379c-43.744 0 -66.516 6.261 -78.599 21.61C0 86.344 0 108.395 0 138.916v58.17c0 59.126 13.977 89.146 90.379 89.146h155.239c37.086 0 57.636 -5.19 70.931 -17.913C330.183 255.271 336 233.968 336 197.086v-58.17c0 -32.186 -0.912 -54.367 -13.096 -68.849zM215.713 176.031l-70.493 36.842a10.828 10.828 0 0 1 -5.02 1.232 10.839 10.839 0 0 1 -10.839 -10.839V129.819a10.839 10.839 0 0 1 15.834 -9.619l70.493 36.604a10.838 10.838 0 0 1 0.025 19.226z"/></g></svg>