<?xml version="1.0" encoding="UTF-8"?>
<svg xmlns="http://www.w3.org/2000/svg" xmlns:xlink="http://www.w3.org/1999/xlink" width="24px" height="24px" viewBox="0 0 24 24" version="1.1">
<g id="surface1">
<path style=" stroke:none;fill-rule:nonzero;fill:rgb(12.156863%,63.921571%,89.803922%);fill-opacity:1;" d="M 22.34375 24 L 1.65625 24 C 0.746094 24 0 23.253906 0 22.34375 L 0 1.65625 C 0 0.746094 0.746094 0 1.65625 0 L 22.34375 0 C 23.253906 0 24 0.746094 24 1.65625 L 24 22.34375 C 24 23.253906 23.253906 24 22.34375 24 "/>
<path style=" stroke:none;fill-rule:nonzero;fill:rgb(0%,0%,0%);fill-opacity:1;" d="M 20.277344 4.136719 L 20.277344 8.277344 L 16.550781 8.277344 C 16.097656 8.277344 15.722656 8.648438 15.722656 9.101562 L 15.722656 11.585938 L 19.863281 11.585938 L 19.863281 15.722656 L 15.722656 15.722656 L 15.722656 24 L 11.585938 24 L 11.585938 15.722656 L 8.277344 15.722656 L 8.277344 11.585938 L 11.585938 11.585938 L 11.585938 9.101562 C 11.585938 6.496094 13.574219 4.34375 16.136719 4.136719 Z M 20.277344 4.136719 "/>
</g>
</svg>
