<?xml version="1.0" encoding="UTF-8"?>
<svg xmlns="http://www.w3.org/2000/svg" xmlns:xlink="http://www.w3.org/1999/xlink" width="40px" height="40px" viewBox="0 0 40 40" version="1.1">
<g id="surface1">
<path style=" stroke:none;fill-rule:nonzero;fill:rgb(100%,100%,100%);fill-opacity:1;" d="M 12.117188 5 L 13.886719 5 L 15.027344 9.578125 L 15.140625 9.578125 L 16.230469 5.003906 L 18.019531 5.003906 L 15.96875 11.699219 L 15.96875 16.667969 L 14.210938 16.667969 L 14.210938 11.914062 Z M 17.9375 9.9375 C 17.9375 9.28125 18.148438 8.761719 18.570312 8.375 C 18.988281 7.984375 19.554688 7.789062 20.265625 7.789062 C 20.914062 7.789062 21.441406 7.996094 21.855469 8.40625 C 22.269531 8.8125 22.476562 9.339844 22.476562 9.984375 L 22.476562 14.347656 C 22.476562 15.066406 22.273438 15.636719 21.867188 16.050781 C 21.464844 16.460938 20.910156 16.667969 20.195312 16.667969 C 19.511719 16.667969 18.964844 16.449219 18.550781 16.027344 C 18.140625 15.605469 17.9375 15.03125 17.9375 14.316406 L 17.9375 9.933594 Z M 19.546875 14.472656 C 19.546875 14.703125 19.601562 14.886719 19.714844 15.011719 C 19.828125 15.136719 19.984375 15.199219 20.191406 15.199219 C 20.40625 15.199219 20.570312 15.136719 20.695312 15.003906 C 20.820312 14.878906 20.882812 14.699219 20.882812 14.472656 L 20.882812 9.871094 C 20.882812 9.6875 20.816406 9.539062 20.691406 9.425781 C 20.566406 9.3125 20.398438 9.253906 20.191406 9.253906 C 20 9.253906 19.84375 9.3125 19.726562 9.425781 C 19.605469 9.539062 19.546875 9.6875 19.546875 9.871094 Z M 28.265625 8.003906 L 28.265625 16.667969 L 26.703125 16.667969 L 26.703125 15.613281 C 26.414062 15.957031 26.113281 16.21875 25.800781 16.394531 C 25.492188 16.574219 25.1875 16.667969 24.898438 16.667969 C 24.535156 16.667969 24.261719 16.542969 24.078125 16.289062 C 23.894531 16.039062 23.804688 15.664062 23.804688 15.160156 L 23.804688 8.003906 L 25.367188 8.003906 L 25.367188 14.574219 C 25.367188 14.773438 25.398438 14.917969 25.464844 15.007812 C 25.527344 15.09375 25.640625 15.144531 25.785156 15.144531 C 25.902344 15.144531 26.046875 15.085938 26.21875 14.964844 C 26.394531 14.847656 26.558594 14.695312 26.703125 14.511719 L 26.703125 8.003906 Z M 28.265625 8.003906 "/>
<path style=" stroke:none;fill-rule:nonzero;fill:rgb(100%,100%,100%);fill-opacity:1;" d="M 32.332031 22.03125 C 32.332031 20.082031 30.714844 18.5 28.726562 18.5 C 25.882812 18.378906 22.972656 18.328125 20 18.335938 C 17.03125 18.328125 14.121094 18.378906 11.273438 18.5 C 9.285156 18.5 7.667969 20.082031 7.667969 22.03125 C 7.550781 23.574219 7.496094 25.121094 7.5 26.667969 C 7.496094 28.210938 7.550781 29.757812 7.671875 31.300781 C 7.671875 33.253906 9.285156 34.835938 11.273438 34.835938 C 14.121094 34.953125 17.03125 35.003906 20 35 C 22.96875 35.007812 25.882812 34.953125 28.726562 34.835938 C 30.714844 34.835938 32.332031 33.253906 32.332031 31.300781 C 32.449219 29.757812 32.507812 28.210938 32.5 26.667969 C 32.507812 25.121094 32.449219 23.574219 32.332031 22.03125 Z M 32.332031 22.03125 "/>
<path style=" stroke:none;fill-rule:nonzero;fill:rgb(95.686275%,26.274511%,21.176471%);fill-opacity:1;" d="M 28.210938 25.289062 C 28.027344 25.289062 27.902344 25.335938 27.828125 25.4375 C 27.773438 25.515625 27.707031 25.6875 27.707031 26.066406 L 27.707031 26.710938 L 28.699219 26.710938 L 28.699219 26.066406 C 28.699219 25.691406 28.632812 25.519531 28.574219 25.433594 C 28.503906 25.335938 28.382812 25.289062 28.210938 25.289062 Z M 22.386719 25.320312 C 22.316406 25.355469 22.246094 25.410156 22.171875 25.484375 L 22.171875 30.378906 C 22.265625 30.472656 22.351562 30.539062 22.4375 30.582031 C 22.527344 30.625 22.621094 30.648438 22.722656 30.648438 C 22.917969 30.648438 22.976562 30.570312 22.996094 30.546875 C 23.042969 30.484375 23.09375 30.363281 23.09375 30.09375 L 23.09375 25.925781 C 23.09375 25.691406 23.050781 25.511719 22.96875 25.402344 C 22.855469 25.253906 22.636719 25.195312 22.386719 25.320312 Z M 22.386719 25.320312 "/>
<path style=" stroke:none;fill-rule:nonzero;fill:rgb(95.686275%,26.274511%,21.176471%);fill-opacity:1;" d="M 32.332031 22.03125 C 32.332031 20.082031 30.714844 18.5 28.726562 18.5 C 25.882812 18.378906 22.972656 18.328125 20 18.335938 C 17.03125 18.328125 14.121094 18.378906 11.273438 18.5 C 9.285156 18.5 7.667969 20.082031 7.667969 22.03125 C 7.550781 23.574219 7.496094 25.121094 7.5 26.667969 C 7.496094 28.210938 7.550781 29.757812 7.671875 31.300781 C 7.671875 33.253906 9.285156 34.835938 11.273438 34.835938 C 14.121094 34.953125 17.03125 35.003906 20 35 C 22.96875 35.007812 25.882812 34.953125 28.726562 34.835938 C 30.714844 34.835938 32.332031 33.253906 32.332031 31.300781 C 32.449219 29.757812 32.507812 28.210938 32.5 26.667969 C 32.507812 25.121094 32.449219 23.574219 32.332031 22.03125 Z M 13.085938 31.984375 C 13.085938 32.078125 13.007812 32.15625 12.914062 32.15625 L 11.203125 32.15625 C 11.109375 32.15625 11.035156 32.078125 11.035156 31.984375 L 11.035156 22.792969 L 9.4375 22.792969 C 9.34375 22.792969 9.265625 22.714844 9.265625 22.625 L 9.265625 21.039062 C 9.265625 20.945312 9.34375 20.867188 9.4375 20.867188 L 14.679688 20.867188 C 14.777344 20.867188 14.851562 20.945312 14.851562 21.039062 L 14.851562 22.625 C 14.851562 22.714844 14.777344 22.792969 14.679688 22.792969 L 13.085938 22.792969 Z M 19.164062 31.984375 C 19.164062 32.078125 19.085938 32.15625 18.992188 32.15625 L 17.472656 32.15625 C 17.378906 32.15625 17.300781 32.078125 17.300781 31.984375 L 17.300781 31.527344 C 17.097656 31.71875 16.894531 31.875 16.6875 31.992188 C 16.355469 32.183594 16.039062 32.273438 15.71875 32.273438 C 15.3125 32.273438 15 32.125 14.789062 31.839844 C 14.589844 31.570312 14.488281 31.171875 14.488281 30.65625 L 14.488281 23.90625 C 14.488281 23.8125 14.5625 23.738281 14.660156 23.738281 L 16.175781 23.738281 C 16.273438 23.738281 16.347656 23.8125 16.347656 23.90625 L 16.347656 30.097656 C 16.347656 30.300781 16.386719 30.382812 16.410156 30.414062 C 16.421875 30.429688 16.449219 30.472656 16.578125 30.472656 C 16.625 30.472656 16.722656 30.453125 16.902344 30.332031 C 17.050781 30.234375 17.183594 30.113281 17.296875 29.976562 L 17.296875 23.90625 C 17.296875 23.8125 17.375 23.738281 17.472656 23.738281 L 18.988281 23.738281 C 19.082031 23.738281 19.160156 23.8125 19.160156 23.90625 L 19.160156 31.984375 Z M 25 30.3125 C 25 30.925781 24.867188 31.402344 24.605469 31.734375 C 24.335938 32.082031 23.941406 32.253906 23.441406 32.253906 C 23.121094 32.253906 22.828125 32.191406 22.570312 32.0625 C 22.429688 31.992188 22.296875 31.902344 22.171875 31.789062 L 22.171875 31.984375 C 22.171875 32.078125 22.09375 32.15625 22 32.15625 L 20.46875 32.15625 C 20.371094 32.15625 20.296875 32.078125 20.296875 31.984375 L 20.296875 21.035156 C 20.296875 20.941406 20.371094 20.867188 20.46875 20.867188 L 22 20.867188 C 22.09375 20.867188 22.171875 20.941406 22.171875 21.035156 L 22.171875 24.132812 C 22.296875 24.019531 22.429688 23.925781 22.566406 23.847656 C 22.824219 23.703125 23.085938 23.632812 23.347656 23.632812 C 23.882812 23.632812 24.300781 23.832031 24.585938 24.222656 C 24.859375 24.597656 25 25.140625 25 25.832031 Z M 30.609375 28.136719 C 30.609375 28.230469 30.53125 28.308594 30.433594 28.308594 L 27.707031 28.308594 L 27.707031 29.660156 C 27.707031 30.152344 27.777344 30.363281 27.832031 30.453125 C 27.875 30.523438 27.957031 30.617188 28.195312 30.617188 C 28.386719 30.617188 28.519531 30.570312 28.585938 30.480469 C 28.617188 30.433594 28.703125 30.246094 28.703125 29.65625 L 28.703125 29.09375 C 28.703125 29 28.78125 28.925781 28.875 28.925781 L 30.433594 28.925781 C 30.53125 28.925781 30.605469 29 30.605469 29.09375 L 30.605469 29.703125 C 30.605469 30.574219 30.398438 31.238281 29.992188 31.6875 C 29.582031 32.140625 28.964844 32.371094 28.160156 32.371094 C 27.433594 32.371094 26.847656 32.125 26.425781 31.648438 C 26.011719 31.171875 25.796875 30.519531 25.796875 29.703125 L 25.796875 26.074219 C 25.796875 25.332031 26.03125 24.71875 26.488281 24.246094 C 26.949219 23.773438 27.550781 23.53125 28.277344 23.53125 C 29.019531 23.53125 29.597656 23.757812 30.003906 24.199219 C 30.402344 24.640625 30.605469 25.269531 30.605469 26.078125 L 30.605469 28.136719 Z M 30.609375 28.136719 "/>
</g>
</svg>
