<svg width="40px" height="40px" viewBox="0 0 2102.938 2102.938" xmlns="http://www.w3.org/2000/svg" fill="#000000"><g id="SVGRepo_bgCarrier" stroke-width="0"/><g id="SVGRepo_tracerCarrier" stroke-linecap="round" stroke-linejoin="round"/><g id="SVGRepo_iconCarrier"><defs><radialGradient id="0" cx="217.76" cy="3290.99" r="4271.92" gradientUnits="userSpaceOnUse"><stop offset=".09" stop-color="#fa8f21"/><stop offset=".78" stop-color="#d82d7e"/></radialGradient><radialGradient id="1" cx="2330.61" cy="3182.95" r="3759.33" gradientUnits="userSpaceOnUse"><stop offset=".64" stop-color="#8c3aaa" stop-opacity="0"/><stop offset="1" stop-color="#8c3aaa"/></radialGradient></defs><path d="M533.25 2095.5c-125.063 -5.688 -193 -26.5 -238.188 -44.125 -59.875 -23.313 -102.563 -51.063 -147.5 -95.938S74.813 1867.875 51.625 1808C34 1762.813 13.188 1694.875 7.5 1569.813c-6.25 -135.188 -7.5 -175.75 -7.5 -518.25s1.375 -383 7.438 -518.313c5.688 -125.063 26.625 -192.875 44.125 -238.188C74.875 235.188 102.688 192.5 147.5 147.5c44.875 -44.875 87.563 -72.75 147.5 -95.938 45.188 -17.625 113.125 -38.438 238.188 -44.125C668.438 1.25 709.063 0 1051.438 0c342.5 0 383 1.375 518.313 7.438 125.063 5.688 192.875 26.625 238.188 44.125 59.875 23.188 102.563 51.063 147.5 95.938s72.625 87.625 95.938 147.5c17.625 45.188 38.438 113.125 44.125 238.188 6.188 135.313 7.438 175.813 7.438 518.313 0 342.375 -1.25 383 -7.438 518.313 -5.688 125.063 -26.625 193 -44.125 238.188 -23.313 59.875 -51.063 102.563 -95.938 147.438s-87.625 72.625 -147.5 95.938c-45.188 17.625 -113.125 38.438 -238.188 44.125 -135.188 6.188 -175.813 7.438 -518.313 7.438 -342.375 0 -383 -1.188 -518.188 -7.438" fill="url(#0)"/><path d="M533.25 2095.5c-125.063 -5.688 -193 -26.5 -238.188 -44.125 -59.875 -23.313 -102.563 -51.063 -147.5 -95.938S74.813 1867.875 51.625 1808C34 1762.813 13.188 1694.875 7.5 1569.813c-6.25 -135.188 -7.5 -175.75 -7.5 -518.25s1.375 -383 7.438 -518.313c5.688 -125.063 26.625 -192.875 44.125 -238.188C74.875 235.188 102.688 192.5 147.5 147.5c44.875 -44.875 87.563 -72.75 147.5 -95.938 45.188 -17.625 113.125 -38.438 238.188 -44.125C668.438 1.25 709.063 0 1051.438 0c342.5 0 383 1.375 518.313 7.438 125.063 5.688 192.875 26.625 238.188 44.125 59.875 23.188 102.563 51.063 147.5 95.938s72.625 87.625 95.938 147.5c17.625 45.188 38.438 113.125 44.125 238.188 6.188 135.313 7.438 175.813 7.438 518.313 0 342.375 -1.25 383 -7.438 518.313 -5.688 125.063 -26.625 193 -44.125 238.188 -23.313 59.875 -51.063 102.563 -95.938 147.438s-87.625 72.625 -147.5 95.938c-45.188 17.625 -113.125 38.438 -238.188 44.125 -135.188 6.188 -175.813 7.438 -518.313 7.438 -342.375 0 -383 -1.188 -518.188 -7.438" fill="url(#1)"/><path d="M793.282 1055.95c0 -143.819 116.557 -260.438 260.375 -260.438s260.438 116.618 260.438 260.438 -116.618 260.438 -260.438 260.438 -260.375 -116.618 -260.375 -260.438m-140.787 0c0 221.563 179.6 401.163 401.163 401.163s401.163 -179.6 401.163 -401.163 -179.6 -401.163 -401.163 -401.163S652.5 834.375 652.5 1055.95m724.457 -417.068a93.75 93.75 0 1 0 93.788 -93.713h-0.037a93.792 93.792 0 0 0 -93.75 93.713M738.031 1691.875c-76.169 -3.468 -117.569 -16.157 -145.081 -26.875 -36.475 -14.2 -62.5 -31.113 -89.862 -58.438s-44.3 -53.325 -58.438 -89.8c-10.725 -27.5 -23.413 -68.912 -26.875 -145.081 -3.788 -82.35 -4.543 -107.088 -4.543 -315.718s0.819 -233.3 4.543 -315.718c3.468 -76.169 16.25 -117.5 26.875 -145.081 14.2 -36.475 31.113 -62.5 58.438 -89.862s53.325 -44.3 89.862 -58.438c27.5 -10.725 68.912 -23.413 145.081 -26.875 82.35 -3.788 107.088 -4.543 315.625 -4.543s233.301 0.804 315.719 4.554c76.169 3.468 117.5 16.25 145.081 26.875 36.475 14.138 62.5 31.113 89.862 58.438s44.238 53.388 58.438 89.862c10.725 27.5 23.413 68.912 26.875 145.081 3.788 82.419 4.543 107.088 4.543 315.718s-0.756 233.3 -4.543 315.718c-3.468 76.169 -16.218 117.569 -26.875 145.081 -14.2 36.475 -31.113 62.5 -58.438 89.8s-53.388 44.238 -89.862 58.438c-27.5 10.725 -68.912 23.413 -145.081 26.875 -82.35 3.788 -107.088 4.543 -315.718 4.543s-233.3 -0.756 -315.625 -4.543m-6.469 -1412.455c-83.168 3.788 -140 16.975 -189.632 36.288 -51.368 19.944 -94.912 46.7 -138.393 90.113S333.369 492.793 313.425 544.225c-19.313 49.663 -32.5 106.463 -36.288 189.632 -3.85 83.3 -4.732 109.931 -4.732 322.094s0.881 238.794 4.732 322.094c3.788 83.175 16.975 139.968 36.288 189.632 19.944 51.368 46.638 95 90.113 138.393s86.963 70.113 138.393 90.113c49.725 19.313 106.463 32.5 189.632 36.288 83.343 3.788 109.931 4.732 322.094 4.732s238.794 -0.881 322.094 -4.732c83.175 -3.788 139.968 -16.975 189.632 -36.288 51.368 -20 94.912 -46.7 138.393 -90.113s70.113 -87.025 90.113 -138.393c19.313 -49.663 32.563 -106.463 36.288 -189.632 3.788 -83.362 4.669 -109.931 4.669 -322.094s-0.881 -238.794 -4.669 -322.094c-3.788 -83.175 -16.975 -140 -36.288 -189.632 -20 -51.368 -46.7 -94.912 -90.113 -138.393s-87.025 -70.169 -138.332 -90.113c-49.725 -19.313 -106.525 -32.563 -189.632 -36.288 -83.313 -3.806 -109.931 -4.732 -322.063 -4.732s-238.813 0.881 -322.157 4.732" fill="#ffffff"/></g></svg>