<svg xmlns="http://www.w3.org/2000/svg" aria-label="Facebook" role="img" viewBox="-32 -32 384 384" width="40px" height="40px" fill="#000000"><g id="SVGRepo_bgCarrier" stroke-width="0"/><g id="SVGRepo_tracerCarrier" stroke-linecap="round" stroke-linejoin="round" stroke="#CCCCCC" stroke-width="20.48"><path width="512" height="512" rx="15%" fill="#1877f2" d="M1.831 0h316.337A1.831 1.831 0 0 1 320 1.831v316.337a1.831 1.831 0 0 1 -1.831 1.831H1.831A1.831 1.831 0 0 1 0 318.169V1.831A1.831 1.831 0 0 1 1.831 0"/><path d="m222.25 206.25 7.125 -46.25H185v-30c0 -12.625 6.188 -25 26.063 -25H231.25V65.625S212.938 62.5 195.438 62.5C158.875 62.5 135 84.625 135 124.75V160H94.375v46.25H135v113.75h50v-113.75z" fill="#ffffff"/></g><g id="SVGRepo_iconCarrier"><path width="512" height="512" rx="15%" fill="#1877f2" d="M1.831 0h316.337A1.831 1.831 0 0 1 320 1.831v316.337a1.831 1.831 0 0 1 -1.831 1.831H1.831A1.831 1.831 0 0 1 0 318.169V1.831A1.831 1.831 0 0 1 1.831 0"/><path d="m222.25 206.25 7.125 -46.25H185v-30c0 -12.625 6.188 -25 26.063 -25H231.25V65.625S212.938 62.5 195.438 62.5C158.875 62.5 135 84.625 135 124.75V160H94.375v46.25H135v113.75h50v-113.75z" fill="#ffffff"/></g></svg>