<svg fill="#e52e2e" width="40px" height="40px" viewBox="0 -2.5 20 20" xmlns="http://www.w3.org/2000/svg" preserveAspectRatio="xMidYMid" stroke="#e52e2e" stroke-width="0.22400000000000003"><g id="SVGRepo_bgCarrier" stroke-width="0"/><g id="SVGRepo_tracerCarrier" stroke-linecap="round" stroke-linejoin="round"/><g id="SVGRepo_iconCarrier"><path d="M19.201 12.862c-0.366 0.822 -1.309 1.566 -2.194 1.731 -0.091 0.017 -2.255 0.408 -7.001 0.408h-0.013c-4.745 0 -6.911 -0.391 -7.001 -0.407 -0.886 -0.165 -1.829 -0.909 -2.196 -1.732C0.764 12.788 0.001 11.029 0.001 7.5s0.764 -5.289 0.796 -5.362C1.163 1.316 2.107 0.572 2.993 0.408 3.083 0.391 5.249 0 9.994 0c4.758 0 6.923 0.391 7.013 0.407 0.886 0.165 1.829 0.909 2.196 1.731C19.234 2.211 20 3.971 20 7.5s-0.766 5.288 -0.799 5.362ZM18.058 2.644c-0.195 -0.438 -0.806 -0.919 -1.28 -1.008C16.758 1.633 14.616 1.25 10.006 1.25c-4.622 0 -6.766 0.383 -6.786 0.386 -0.474 0.088 -1.084 0.569 -1.28 1.01 -0.006 0.013 -0.689 1.622 -0.689 4.854s0.683 4.84 0.69 4.856c0.194 0.438 0.805 0.919 1.279 1.008 0.02 0.004 2.164 0.386 6.773 0.386h0.013c4.61 0 6.752 -0.383 6.772 -0.386 0.474 -0.088 1.084 -0.569 1.28 -1.01 0.006 -0.014 0.69 -1.623 0.69 -4.854s-0.684 -4.841 -0.691 -4.856ZM8.463 11.154a0.625 0.625 0 0 1 -0.635 0.018 0.625 0.625 0 0 1 -0.323 -0.547V4.375a0.624 0.624 0 0 1 0.954 -0.532l5.012 3.098a0.625 0.625 0 0 1 0.004 1.06zm0.293 -5.657v3.997l3.205 -2.016z"/></g></svg>