<?xml version="1.0" encoding="UTF-8"?>
<svg xmlns="http://www.w3.org/2000/svg" xmlns:xlink="http://www.w3.org/1999/xlink" width="30px" height="30px" viewBox="0 0 30 30" version="1.1">
<g id="surface1">
<path style=" stroke:none;fill-rule:nonzero;fill:rgb(100%,100%,100%);fill-opacity:1;" d="M 9.089844 3.75 L 10.414062 3.75 L 11.269531 7.183594 L 11.355469 7.183594 L 12.171875 3.753906 L 13.515625 3.753906 L 11.976562 8.773438 L 11.976562 12.5 L 10.660156 12.5 L 10.660156 8.933594 Z M 13.453125 7.453125 C 13.453125 6.960938 13.613281 6.570312 13.925781 6.28125 C 14.242188 5.988281 14.667969 5.839844 15.199219 5.839844 C 15.683594 5.839844 16.082031 5.996094 16.390625 6.304688 C 16.703125 6.609375 16.855469 7.003906 16.855469 7.488281 L 16.855469 10.761719 C 16.855469 11.300781 16.707031 11.726562 16.402344 12.039062 C 16.097656 12.347656 15.683594 12.5 15.144531 12.5 C 14.632812 12.5 14.222656 12.335938 13.914062 12.019531 C 13.605469 11.703125 13.453125 11.273438 13.453125 10.738281 L 13.453125 7.449219 Z M 14.660156 10.855469 C 14.660156 11.027344 14.699219 11.164062 14.785156 11.257812 C 14.871094 11.351562 14.988281 11.398438 15.144531 11.398438 C 15.304688 11.398438 15.425781 11.351562 15.519531 11.253906 C 15.613281 11.160156 15.660156 11.023438 15.660156 10.855469 L 15.660156 7.402344 C 15.660156 7.265625 15.613281 7.152344 15.519531 7.070312 C 15.425781 6.984375 15.300781 6.941406 15.144531 6.941406 C 15 6.941406 14.882812 6.984375 14.792969 7.070312 C 14.703125 7.152344 14.660156 7.265625 14.660156 7.402344 Z M 21.199219 6.003906 L 21.199219 12.5 L 20.027344 12.5 L 20.027344 11.710938 C 19.808594 11.96875 19.585938 12.164062 19.351562 12.296875 C 19.121094 12.429688 18.890625 12.5 18.675781 12.5 C 18.402344 12.5 18.195312 12.40625 18.058594 12.214844 C 17.921875 12.027344 17.855469 11.746094 17.855469 11.371094 L 17.855469 6.003906 L 19.027344 6.003906 L 19.027344 10.929688 C 19.027344 11.082031 19.050781 11.1875 19.097656 11.253906 C 19.144531 11.320312 19.230469 11.359375 19.339844 11.359375 C 19.425781 11.359375 19.535156 11.316406 19.664062 11.222656 C 19.796875 11.136719 19.917969 11.019531 20.027344 10.882812 L 20.027344 6.003906 Z M 21.199219 6.003906 "/>
<path style=" stroke:none;fill-rule:nonzero;fill:rgb(100%,100%,100%);fill-opacity:1;" d="M 24.25 16.523438 C 24.25 15.0625 23.035156 13.875 21.542969 13.875 C 19.410156 13.785156 17.230469 13.746094 15 13.753906 C 12.773438 13.746094 10.589844 13.785156 8.457031 13.875 C 6.964844 13.875 5.75 15.0625 5.75 16.523438 C 5.664062 17.679688 5.621094 18.839844 5.625 20 C 5.621094 21.160156 5.664062 22.316406 5.753906 23.476562 C 5.753906 24.941406 6.964844 26.128906 8.457031 26.128906 C 10.589844 26.214844 12.773438 26.253906 15 26.25 C 17.226562 26.253906 19.410156 26.214844 21.542969 26.128906 C 23.035156 26.128906 24.25 24.941406 24.25 23.476562 C 24.335938 22.316406 24.378906 21.160156 24.375 20 C 24.378906 18.839844 24.335938 17.679688 24.25 16.523438 Z M 24.25 16.523438 "/>
<path style=" stroke:none;fill-rule:nonzero;fill:rgb(95.686275%,26.274511%,21.176471%);fill-opacity:1;" d="M 21.160156 18.964844 C 21.019531 18.964844 20.925781 19.003906 20.871094 19.078125 C 20.832031 19.136719 20.78125 19.265625 20.78125 19.550781 L 20.78125 20.035156 L 21.523438 20.035156 L 21.523438 19.550781 C 21.523438 19.269531 21.472656 19.140625 21.429688 19.074219 C 21.378906 19.003906 21.285156 18.964844 21.160156 18.964844 Z M 16.789062 18.988281 C 16.738281 19.015625 16.683594 19.058594 16.628906 19.113281 L 16.628906 22.785156 C 16.699219 22.855469 16.761719 22.902344 16.828125 22.9375 C 16.894531 22.96875 16.964844 22.988281 17.042969 22.988281 C 17.1875 22.988281 17.230469 22.925781 17.246094 22.910156 C 17.28125 22.863281 17.320312 22.773438 17.320312 22.570312 L 17.320312 19.445312 C 17.320312 19.269531 17.289062 19.132812 17.226562 19.050781 C 17.140625 18.941406 16.976562 18.894531 16.789062 18.988281 Z M 16.789062 18.988281 "/>
<path style=" stroke:none;fill-rule:nonzero;fill:rgb(95.686275%,26.274511%,21.176471%);fill-opacity:1;" d="M 24.25 16.523438 C 24.25 15.0625 23.035156 13.875 21.542969 13.875 C 19.410156 13.785156 17.230469 13.746094 15 13.753906 C 12.773438 13.746094 10.589844 13.785156 8.457031 13.875 C 6.964844 13.875 5.75 15.0625 5.75 16.523438 C 5.664062 17.679688 5.621094 18.839844 5.625 20 C 5.621094 21.160156 5.664062 22.316406 5.753906 23.476562 C 5.753906 24.941406 6.964844 26.128906 8.457031 26.128906 C 10.589844 26.214844 12.773438 26.253906 15 26.25 C 17.226562 26.253906 19.410156 26.214844 21.542969 26.128906 C 23.035156 26.128906 24.25 24.941406 24.25 23.476562 C 24.335938 22.316406 24.378906 21.160156 24.375 20 C 24.378906 18.839844 24.335938 17.679688 24.25 16.523438 Z M 9.816406 23.988281 C 9.816406 24.058594 9.753906 24.117188 9.683594 24.117188 L 8.402344 24.117188 C 8.332031 24.117188 8.277344 24.058594 8.277344 23.988281 L 8.277344 17.09375 L 7.078125 17.09375 C 7.007812 17.09375 6.949219 17.035156 6.949219 16.96875 L 6.949219 15.777344 C 6.949219 15.707031 7.007812 15.652344 7.078125 15.652344 L 11.011719 15.652344 C 11.082031 15.652344 11.136719 15.707031 11.136719 15.777344 L 11.136719 16.96875 C 11.136719 17.035156 11.082031 17.09375 11.011719 17.09375 L 9.816406 17.09375 Z M 14.371094 23.988281 C 14.371094 24.058594 14.316406 24.117188 14.246094 24.117188 L 13.105469 24.117188 C 13.035156 24.117188 12.976562 24.058594 12.976562 23.988281 L 12.976562 23.644531 C 12.824219 23.789062 12.671875 23.90625 12.515625 23.996094 C 12.265625 24.136719 12.027344 24.207031 11.789062 24.207031 C 11.484375 24.207031 11.25 24.09375 11.089844 23.878906 C 10.941406 23.675781 10.867188 23.378906 10.867188 22.992188 L 10.867188 17.929688 C 10.867188 17.859375 10.921875 17.804688 10.996094 17.804688 L 12.132812 17.804688 C 12.207031 17.804688 12.261719 17.859375 12.261719 17.929688 L 12.261719 22.574219 C 12.261719 22.726562 12.289062 22.785156 12.308594 22.808594 C 12.316406 22.824219 12.335938 22.855469 12.433594 22.855469 C 12.46875 22.855469 12.542969 22.839844 12.675781 22.75 C 12.789062 22.675781 12.886719 22.585938 12.972656 22.480469 L 12.972656 17.929688 C 12.972656 17.859375 13.03125 17.804688 13.105469 17.804688 L 14.242188 17.804688 C 14.3125 17.804688 14.371094 17.859375 14.371094 17.929688 Z M 18.75 22.734375 C 18.75 23.195312 18.652344 23.550781 18.453125 23.800781 C 18.253906 24.0625 17.957031 24.191406 17.582031 24.191406 C 17.339844 24.191406 17.121094 24.144531 16.925781 24.046875 C 16.824219 23.996094 16.722656 23.925781 16.628906 23.839844 L 16.628906 23.988281 C 16.628906 24.058594 16.570312 24.117188 16.5 24.117188 L 15.351562 24.117188 C 15.277344 24.117188 15.222656 24.058594 15.222656 23.988281 L 15.222656 15.777344 C 15.222656 15.707031 15.277344 15.652344 15.351562 15.652344 L 16.5 15.652344 C 16.570312 15.652344 16.628906 15.707031 16.628906 15.777344 L 16.628906 18.097656 C 16.722656 18.015625 16.824219 17.945312 16.925781 17.886719 C 17.117188 17.777344 17.316406 17.722656 17.511719 17.722656 C 17.910156 17.722656 18.226562 17.875 18.441406 18.167969 C 18.644531 18.449219 18.75 18.855469 18.75 19.375 Z M 22.957031 21.101562 C 22.957031 21.171875 22.898438 21.230469 22.824219 21.230469 L 20.78125 21.230469 L 20.78125 22.246094 C 20.78125 22.613281 20.832031 22.773438 20.875 22.839844 C 20.90625 22.894531 20.96875 22.964844 21.144531 22.964844 C 21.289062 22.964844 21.390625 22.925781 21.441406 22.859375 C 21.464844 22.824219 21.527344 22.683594 21.527344 22.242188 L 21.527344 21.820312 C 21.527344 21.75 21.585938 21.695312 21.65625 21.695312 L 22.824219 21.695312 C 22.898438 21.695312 22.953125 21.75 22.953125 21.820312 L 22.953125 22.277344 C 22.953125 22.929688 22.800781 23.429688 22.496094 23.765625 C 22.1875 24.105469 21.722656 24.277344 21.121094 24.277344 C 20.574219 24.277344 20.136719 24.09375 19.820312 23.738281 C 19.507812 23.378906 19.347656 22.890625 19.347656 22.277344 L 19.347656 19.554688 C 19.347656 19 19.523438 18.539062 19.867188 18.183594 C 20.210938 17.832031 20.664062 17.648438 21.207031 17.648438 C 21.765625 17.648438 22.199219 17.816406 22.503906 18.148438 C 22.800781 18.480469 22.953125 18.953125 22.953125 19.558594 L 22.953125 21.101562 Z M 22.957031 21.101562 "/>
</g>
</svg>
