<svg height="30px" width="30px" version="1.1" id="Layer_1" xmlns="http://www.w3.org/2000/svg" xmlns:xlink="http://www.w3.org/1999/xlink" viewBox="0 0 240 240" xml:space="preserve" fill="#000000"><g id="SVGRepo_bgCarrier" stroke-width="0"/><g id="SVGRepo_tracerCarrier" stroke-linecap="round" stroke-linejoin="round"/><g id="SVGRepo_iconCarrier"><path style="fill:#1fa3e5;" d="M223.448 240H16.552C7.448 240 0 232.552 0 223.448V16.552C0 7.448 7.448 0 16.552 0h206.897C232.552 0 240 7.448 240 16.552v206.897c0 9.103 -7.448 16.552 -16.552 16.552"/><path style="fill:#000000;" d="M202.759 41.379v41.379h-37.241c-4.552 0 -8.276 3.725 -8.276 8.276v24.828h41.379v41.379h-41.379V240h-41.379v-82.759h-33.103v-41.379h33.103V91.034c0 -26.069 19.862 -47.586 45.517 -49.655h41.379z"/></g></svg>