<svg width="32px" height="32px" viewBox="0 0 1682.35 1682.35" xmlns="http://www.w3.org/2000/svg" fill="#000000"><g id="SVGRepo_bgCarrier" stroke-width="0"/><g id="SVGRepo_tracerCarrier" stroke-linecap="round" stroke-linejoin="round"/><g id="SVGRepo_iconCarrier"><defs><radialGradient id="0" cx="217.76" cy="3290.99" r="4271.92" gradientUnits="userSpaceOnUse"><stop offset=".09" stop-color="#fa8f21"/><stop offset=".78" stop-color="#d82d7e"/></radialGradient><radialGradient id="1" cx="2330.61" cy="3182.95" r="3759.33" gradientUnits="userSpaceOnUse"><stop offset=".64" stop-color="#8c3aaa" stop-opacity="0"/><stop offset="1" stop-color="#8c3aaa"/></radialGradient></defs><path d="M426.6 1676.4c-100.05 -4.55 -154.4 -21.2 -190.55 -35.3 -47.9 -18.65 -82.05 -40.85 -118 -76.75S59.85 1494.3 41.3 1446.4C27.2 1410.25 10.55 1355.9 6 1255.85c-5 -108.15 -6 -140.6 -6 -414.6s1.1 -306.4 5.95 -414.65c4.55 -100.05 21.3 -154.3 35.3 -190.55C59.9 188.15 82.15 154 118 118c35.9 -35.9 70.05 -58.2 118 -76.75 36.15 -14.1 90.5 -30.75 190.55 -35.3C534.75 1 567.25 0 841.15 0c274 0 306.4 1.1 414.65 5.95 100.05 4.55 154.3 21.3 190.55 35.3 47.9 18.55 82.05 40.85 118 76.75s58.1 70.1 76.75 118c14.1 36.15 30.75 90.5 35.3 190.55 4.95 108.25 5.95 140.65 5.95 414.65 0 273.9 -1 306.4 -5.95 414.65 -4.55 100.05 -21.3 154.4 -35.3 190.55 -18.65 47.9 -40.85 82.05 -76.75 117.95s-70.1 58.1 -118 76.75c-36.15 14.1 -90.5 30.75 -190.55 35.3 -108.15 4.95 -140.65 5.95 -414.65 5.95 -273.9 0 -306.4 -0.95 -414.55 -5.95" fill="url(#0)"/><path d="M426.6 1676.4c-100.05 -4.55 -154.4 -21.2 -190.55 -35.3 -47.9 -18.65 -82.05 -40.85 -118 -76.75S59.85 1494.3 41.3 1446.4C27.2 1410.25 10.55 1355.9 6 1255.85c-5 -108.15 -6 -140.6 -6 -414.6s1.1 -306.4 5.95 -414.65c4.55 -100.05 21.3 -154.3 35.3 -190.55C59.9 188.15 82.15 154 118 118c35.9 -35.9 70.05 -58.2 118 -76.75 36.15 -14.1 90.5 -30.75 190.55 -35.3C534.75 1 567.25 0 841.15 0c274 0 306.4 1.1 414.65 5.95 100.05 4.55 154.3 21.3 190.55 35.3 47.9 18.55 82.05 40.85 118 76.75s58.1 70.1 76.75 118c14.1 36.15 30.75 90.5 35.3 190.55 4.95 108.25 5.95 140.65 5.95 414.65 0 273.9 -1 306.4 -5.95 414.65 -4.55 100.05 -21.3 154.4 -35.3 190.55 -18.65 47.9 -40.85 82.05 -76.75 117.95s-70.1 58.1 -118 76.75c-36.15 14.1 -90.5 30.75 -190.55 35.3 -108.15 4.95 -140.65 5.95 -414.65 5.95 -273.9 0 -306.4 -0.95 -414.55 -5.95" fill="url(#1)"/><path d="M634.626 844.76c0 -115.055 93.246 -208.35 208.3 -208.35s208.35 93.294 208.35 208.35 -93.294 208.35 -208.35 208.35 -208.3 -93.294 -208.3 -208.35m-112.63 0c0 177.25 143.68 320.93 320.93 320.93s320.93 -143.68 320.93 -320.93 -143.68 -320.93 -320.93 -320.93S522 667.5 522 844.76m579.566 -333.654a75 75 0 1 0 75.03 -74.97h-0.03a75.032 75.032 0 0 0 -75 74.97M590.425 1353.5c-60.935 -2.774 -94.055 -12.926 -116.065 -21.5 -29.18 -11.36 -50 -24.89 -71.89 -46.75s-35.44 -42.66 -46.75 -71.84c-8.58 -22 -18.73 -55.13 -21.5 -116.065 -3.03 -65.88 -3.634 -85.67 -3.634 -252.574s0.655 -186.64 3.634 -252.574c2.774 -60.935 13 -94 21.5 -116.065 11.36 -29.18 24.89 -50 46.75 -71.89s42.66 -35.44 71.89 -46.75c22 -8.58 55.13 -18.73 116.065 -21.5 65.88 -3.03 85.67 -3.634 252.5 -3.634s186.641 0.643 252.575 3.643c60.935 2.774 94 13 116.065 21.5 29.18 11.31 50 24.89 71.89 46.75s35.39 42.71 46.75 71.89c8.58 22 18.73 55.13 21.5 116.065 3.03 65.935 3.634 85.67 3.634 252.574s-0.605 186.64 -3.634 252.574c-2.774 60.935 -12.974 94.055 -21.5 116.065 -11.36 29.18 -24.89 50 -46.75 71.84s-42.71 35.39 -71.89 46.75c-22 8.58 -55.13 18.73 -116.065 21.5 -65.88 3.03 -85.67 3.634 -252.574 3.634s-186.64 -0.605 -252.5 -3.634m-5.175 -1129.964c-66.534 3.03 -112 13.58 -151.706 29.03 -41.094 15.955 -75.93 37.36 -110.714 72.09s-56.135 69.569 -72.09 110.714c-15.45 39.73 -26 85.17 -29.03 151.706 -3.08 66.64 -3.786 87.945 -3.786 257.675s0.705 191.035 3.786 257.675c3.03 66.54 13.58 111.974 29.03 151.706 15.955 41.094 37.31 76 72.09 110.714s69.57 56.09 110.714 72.09c39.78 15.45 85.17 26 151.706 29.03 66.674 3.03 87.945 3.786 257.675 3.786s191.035 -0.705 257.675 -3.786c66.54 -3.03 111.974 -13.58 151.706 -29.03 41.094 -16 75.93 -37.36 110.714 -72.09s56.09 -69.62 72.09 -110.714c15.45 -39.73 26.05 -85.17 29.03 -151.706 3.03 -66.69 3.735 -87.945 3.735 -257.675s-0.705 -191.035 -3.735 -257.675c-3.03 -66.54 -13.58 -112 -29.03 -151.706 -16 -41.094 -37.36 -75.93 -72.09 -110.714s-69.62 -56.135 -110.666 -72.09c-39.78 -15.45 -85.22 -26.05 -151.706 -29.03 -66.65 -3.045 -87.945 -3.786 -257.65 -3.786s-191.05 0.705 -257.726 3.786" fill="#ffffff"/></g></svg>