<?xml version="1.0" encoding="UTF-8"?>
<svg xmlns="http://www.w3.org/2000/svg" xmlns:xlink="http://www.w3.org/1999/xlink" width="24px" height="19px" viewBox="0 0 24 19" version="1.1">
<g id="surface1">
<path style=" stroke:none;fill-rule:nonzero;fill:rgb(96.862745%,96.862745%,96.862745%);fill-opacity:1;" d="M 19.667969 2.589844 C 19.664062 2.578125 19.652344 2.570312 19.640625 2.5625 C 18.210938 1.914062 16.703125 1.453125 15.152344 1.1875 C 15.125 1.183594 15.097656 1.195312 15.082031 1.222656 C 14.878906 1.589844 14.691406 1.96875 14.523438 2.355469 C 12.851562 2.105469 11.152344 2.105469 9.484375 2.355469 C 9.316406 1.96875 9.128906 1.589844 8.917969 1.222656 C 8.902344 1.195312 8.875 1.183594 8.847656 1.1875 C 7.292969 1.453125 5.785156 1.914062 4.355469 2.5625 C 4.339844 2.570312 4.332031 2.578125 4.324219 2.589844 C 1.464844 6.816406 0.683594 10.9375 1.066406 15.007812 C 1.066406 15.027344 1.078125 15.046875 1.09375 15.058594 C 2.757812 16.277344 4.621094 17.207031 6.601562 17.808594 C 6.628906 17.816406 6.660156 17.808594 6.679688 17.78125 C 7.101562 17.210938 7.480469 16.605469 7.804688 15.972656 C 7.8125 15.953125 7.8125 15.933594 7.804688 15.914062 C 7.800781 15.898438 7.785156 15.882812 7.765625 15.875 C 7.171875 15.648438 6.597656 15.378906 6.046875 15.0625 C 6.023438 15.050781 6.011719 15.03125 6.011719 15.007812 C 6.007812 14.984375 6.019531 14.960938 6.039062 14.949219 C 6.152344 14.863281 6.269531 14.773438 6.378906 14.683594 C 6.398438 14.667969 6.425781 14.664062 6.449219 14.671875 C 10.058594 16.300781 13.964844 16.300781 17.53125 14.671875 C 17.554688 14.660156 17.582031 14.664062 17.601562 14.679688 C 17.710938 14.769531 17.828125 14.863281 17.945312 14.949219 C 17.960938 14.960938 17.972656 14.984375 17.96875 15.007812 C 17.96875 15.03125 17.957031 15.050781 17.9375 15.0625 C 17.386719 15.378906 16.8125 15.652344 16.214844 15.871094 C 16.195312 15.878906 16.183594 15.894531 16.175781 15.910156 C 16.167969 15.929688 16.167969 15.949219 16.175781 15.96875 C 16.507812 16.597656 16.882812 17.203125 17.300781 17.777344 C 17.320312 17.804688 17.351562 17.8125 17.382812 17.804688 C 19.367188 17.207031 21.234375 16.277344 22.902344 15.054688 C 22.917969 15.042969 22.929688 15.023438 22.929688 15.003906 C 23.390625 10.300781 22.160156 6.214844 19.667969 2.589844 Z M 8.34375 12.527344 C 7.257812 12.527344 6.363281 11.539062 6.363281 10.332031 C 6.363281 9.121094 7.242188 8.128906 8.34375 8.128906 C 9.457031 8.128906 10.34375 9.125 10.324219 10.328125 C 10.324219 11.539062 9.445312 12.527344 8.34375 12.527344 Z M 15.671875 12.527344 C 14.582031 12.527344 13.691406 11.539062 13.691406 10.332031 C 13.691406 9.121094 14.566406 8.128906 15.671875 8.128906 C 16.785156 8.128906 17.671875 9.125 17.652344 10.328125 C 17.652344 11.539062 16.78125 12.527344 15.671875 12.527344 Z M 15.671875 12.527344 "/>
</g>
</svg>
