<?xml version="1.0" encoding="UTF-8"?>
<svg xmlns="http://www.w3.org/2000/svg" xmlns:xlink="http://www.w3.org/1999/xlink" width="27px" height="27px" viewBox="0 0 27 27" version="1.1">
<g id="surface1">
<path style=" stroke:none;fill-rule:nonzero;fill:rgb(44.705883%,53.725493%,85.490197%);fill-opacity:1;" d="M 4.050781 0 L 22.949219 0 C 25.183594 0 27 1.816406 27 4.050781 L 27 22.949219 C 27 25.183594 25.183594 27 22.949219 27 L 4.050781 27 C 1.816406 27 0 25.183594 0 22.949219 L 0 4.050781 C 0 1.816406 1.816406 0 4.050781 0 Z M 4.050781 0 "/>
<path style=" stroke:none;fill-rule:nonzero;fill:rgb(100%,100%,100%);fill-opacity:1;" d="M 18.246094 20.671875 L 17.136719 19.351562 C 19.300781 18.773438 20.144531 17.296875 20.144531 17.296875 C 17.402344 19.882812 9.914062 19.984375 7.015625 17.296875 C 7.015625 17.296875 7.75 18.667969 9.96875 19.351562 L 8.753906 20.671875 C 5.0625 20.617188 3.640625 18.140625 3.640625 18.140625 C 3.640625 12.65625 6.0625 8.28125 6.0625 8.28125 C 8.542969 6.539062 10.808594 6.539062 10.808594 6.539062 L 10.96875 6.75 C 7.910156 7.59375 6.59375 8.964844 6.59375 8.964844 C 10.175781 6.539062 17.558594 6.75 20.460938 8.964844 C 20.515625 8.914062 18.71875 7.488281 15.925781 6.75 L 16.1875 6.539062 C 16.1875 6.539062 18.457031 6.539062 20.9375 8.28125 C 20.9375 8.28125 23.359375 12.65625 23.359375 18.140625 C 23.359375 18.140625 21.9375 20.617188 18.246094 20.671875 Z M 18.246094 20.671875 "/>
<path style=" stroke:none;fill-rule:nonzero;fill:rgb(44.705883%,53.725493%,85.490197%);fill-opacity:1;" d="M 12.074219 14.710938 C 12.074219 13.691406 11.296875 12.867188 10.335938 12.867188 C 9.375 12.867188 8.59375 13.691406 8.59375 14.710938 C 8.59375 15.730469 9.375 16.558594 10.335938 16.558594 C 11.296875 16.558594 12.074219 15.730469 12.074219 14.710938 Z M 12.074219 14.710938 "/>
<path style=" stroke:none;fill-rule:nonzero;fill:rgb(44.705883%,53.725493%,85.490197%);fill-opacity:1;" d="M 18.195312 14.710938 C 18.195312 13.691406 17.414062 12.867188 16.453125 12.867188 C 15.492188 12.867188 14.710938 13.691406 14.710938 14.710938 C 14.710938 15.730469 15.492188 16.558594 16.453125 16.558594 C 17.414062 16.558594 18.195312 15.730469 18.195312 14.710938 Z M 18.195312 14.710938 "/>
</g>
</svg>
