<?xml version="1.0" encoding="UTF-8"?>
<svg xmlns="http://www.w3.org/2000/svg" xmlns:xlink="http://www.w3.org/1999/xlink" width="24px" height="24px" viewBox="0 0 24 24" version="1.1">
<g id="surface1">
<path style=" stroke:none;fill-rule:evenodd;fill:rgb(96.862745%,96.862745%,96.862745%);fill-opacity:1;" d="M 20 1 C 21.65625 1 23 2.34375 23 4 L 23 20 C 23 21.65625 21.65625 23 20 23 L 4 23 C 2.34375 23 1 21.65625 1 20 L 1 4 C 1 2.34375 2.34375 1 4 1 Z M 20 3 C 20.550781 3 21 3.449219 21 4 L 21 20 C 21 20.550781 20.550781 21 20 21 L 15 21 L 15 14 L 17.078125 14 C 17.507812 14 17.890625 13.722656 18.023438 13.316406 L 18.46875 11.988281 C 18.628906 11.5 18.269531 11 17.757812 11 L 15 11 L 15 9 C 15 8.5 15.5 8 16 8 L 18 8 C 18.550781 8 19 7.550781 19 7 L 19 6.3125 C 19 5.992188 18.792969 5.703125 18.480469 5.617188 C 17.171875 5.273438 16 5.273438 16 5.273438 C 13.5 5.273438 12 7 12 8.5 L 12 11 L 10 11 C 9.449219 11 9 11.449219 9 12 L 9 13 C 9 13.550781 9.449219 14 10 14 L 12 14 L 12 21 L 4 21 C 3.449219 21 3 20.550781 3 20 L 3 4 C 3 3.449219 3.449219 3 4 3 Z M 20 3 "/>
</g>
</svg>
