<?xml version="1.0" encoding="UTF-8"?>
<svg xmlns="http://www.w3.org/2000/svg" xmlns:xlink="http://www.w3.org/1999/xlink" width="24px" height="24px" viewBox="0 0 24 24" version="1.1">
<g id="surface1">
<path style=" stroke:none;fill-rule:evenodd;fill:rgb(24.313726%,45.882353%,76.47059%);fill-opacity:1;" d="M 12 0.25 C 5.371094 0.25 0 5.644531 0 12.296875 C 0 17.621094 3.4375 22.136719 8.207031 23.730469 C 8.808594 23.839844 9.027344 23.46875 9.027344 23.148438 C 9.027344 22.863281 9.015625 22.105469 9.007812 21.101562 C 5.671875 21.828125 4.96875 19.484375 4.96875 19.484375 C 4.421875 18.09375 3.636719 17.722656 3.636719 17.722656 C 2.546875 16.976562 3.71875 16.992188 3.71875 16.992188 C 4.921875 17.074219 5.554688 18.230469 5.554688 18.230469 C 6.625 20.074219 8.363281 19.542969 9.046875 19.234375 C 9.15625 18.453125 9.46875 17.921875 9.808594 17.621094 C 7.144531 17.316406 4.34375 16.285156 4.34375 11.667969 C 4.34375 10.351562 4.8125 9.277344 5.578125 8.433594 C 5.457031 8.128906 5.042969 6.90625 5.695312 5.246094 C 5.695312 5.246094 6.703125 4.921875 8.996094 6.480469 C 9.953125 6.214844 10.980469 6.082031 12 6.074219 C 13.019531 6.082031 14.046875 6.214844 15.003906 6.480469 C 17.296875 4.921875 18.300781 5.246094 18.300781 5.246094 C 18.957031 6.90625 18.542969 8.128906 18.421875 8.433594 C 19.191406 9.277344 19.65625 10.351562 19.65625 11.667969 C 19.65625 16.296875 16.847656 17.316406 14.175781 17.613281 C 14.605469 17.984375 14.992188 18.71875 14.992188 19.84375 C 14.992188 21.453125 14.976562 22.753906 14.976562 23.148438 C 14.976562 23.472656 15.191406 23.847656 15.800781 23.726562 C 20.566406 22.132812 24 17.617188 24 12.296875 C 24 5.644531 18.628906 0.25 12 0.25 "/>
</g>
</svg>
