<?xml version="1.0" encoding="UTF-8"?>
<svg xmlns="http://www.w3.org/2000/svg" xmlns:xlink="http://www.w3.org/1999/xlink" width="24px" height="27px" viewBox="0 0 24 27" version="1.1">
<g id="surface1">
<path style=" stroke:none;fill-rule:nonzero;fill:rgb(96.862745%,96.862745%,96.862745%);fill-opacity:1;" d="M 12.003906 7.4375 C 8.597656 7.4375 5.851562 10.140625 5.851562 13.496094 C 5.851562 16.847656 8.597656 19.554688 12.003906 19.554688 C 15.414062 19.554688 18.160156 16.847656 18.160156 13.496094 C 18.160156 10.140625 15.414062 7.4375 12.003906 7.4375 Z M 12.003906 17.433594 C 9.804688 17.433594 8.003906 15.667969 8.003906 13.496094 C 8.003906 11.320312 9.796875 9.554688 12.003906 9.554688 C 14.210938 9.554688 16.007812 11.320312 16.007812 13.496094 C 16.007812 15.667969 14.207031 17.433594 12.003906 17.433594 Z M 19.847656 7.1875 C 19.847656 7.972656 19.207031 8.601562 18.414062 8.601562 C 17.613281 8.601562 16.976562 7.96875 16.976562 7.1875 C 16.976562 6.40625 17.621094 5.773438 18.414062 5.773438 C 19.207031 5.773438 19.847656 6.40625 19.847656 7.1875 Z M 23.925781 8.621094 C 23.832031 6.730469 23.394531 5.050781 21.984375 3.671875 C 20.582031 2.289062 18.878906 1.855469 16.957031 1.761719 C 14.972656 1.652344 9.03125 1.652344 7.050781 1.761719 C 5.132812 1.851562 3.429688 2.285156 2.019531 3.664062 C 0.609375 5.046875 0.175781 6.722656 0.0820312 8.617188 C -0.03125 10.566406 -0.03125 16.417969 0.0820312 18.367188 C 0.171875 20.261719 0.609375 21.9375 2.019531 23.320312 C 3.429688 24.699219 5.125 25.132812 7.050781 25.226562 C 9.03125 25.339844 14.972656 25.339844 16.957031 25.226562 C 18.878906 25.136719 20.582031 24.707031 21.984375 23.320312 C 23.390625 21.9375 23.828125 20.261719 23.925781 18.367188 C 24.039062 16.417969 24.039062 10.574219 23.925781 8.621094 Z M 21.363281 20.460938 C 20.945312 21.496094 20.136719 22.289062 19.082031 22.707031 C 17.5 23.324219 13.75 23.183594 12.003906 23.183594 C 10.257812 23.183594 6.503906 23.320312 4.929688 22.707031 C 3.878906 22.296875 3.070312 21.5 2.644531 20.460938 C 2.019531 18.90625 2.164062 15.214844 2.164062 13.496094 C 2.164062 11.777344 2.023438 8.078125 2.644531 6.527344 C 3.0625 5.496094 3.875 4.699219 4.929688 4.28125 C 6.507812 3.664062 10.257812 3.808594 12.003906 3.808594 C 13.75 3.808594 17.507812 3.671875 19.082031 4.28125 C 20.132812 4.695312 20.941406 5.488281 21.363281 6.527344 C 21.992188 8.085938 21.847656 11.777344 21.847656 13.496094 C 21.847656 15.214844 21.992188 18.910156 21.363281 20.460938 Z M 21.363281 20.460938 "/>
</g>
</svg>
