<?xml version="1.0" encoding="UTF-8"?>
<svg xmlns="http://www.w3.org/2000/svg" xmlns:xlink="http://www.w3.org/1999/xlink" width="24px" height="24px" viewBox="0 0 24 24" version="1.1">
<defs>
<radialGradient id="radial0" gradientUnits="userSpaceOnUse" cx="217.759995" cy="3290.98999" fx="217.759995" fy="3290.98999" r="4271.919922" gradientTransform="matrix(0.0142658,0,0,0.0142658,0,0)">
<stop offset="0.09" style="stop-color:rgb(98.039216%,56.078431%,12.941176%);stop-opacity:1;"/>
<stop offset="0.78" style="stop-color:rgb(84.705882%,17.647059%,49.411765%);stop-opacity:1;"/>
</radialGradient>
<radialGradient id="radial1" gradientUnits="userSpaceOnUse" cx="2330.610107" cy="3182.949951" fx="2330.610107" fy="3182.949951" r="3759.330078" gradientTransform="matrix(0.0142658,0,0,0.0142658,0,0)">
<stop offset="0.64" style="stop-color:rgb(54.901961%,22.745098%,66.666667%);stop-opacity:0;"/>
<stop offset="1" style="stop-color:rgb(54.901961%,22.745098%,66.666667%);stop-opacity:1;"/>
</radialGradient>
</defs>
<g id="surface1">
<path style=" stroke:none;fill-rule:nonzero;fill:url(#radial0);" d="M 6.085938 23.914062 C 4.660156 23.851562 3.882812 23.613281 3.367188 23.410156 C 2.683594 23.144531 2.195312 22.828125 1.683594 22.316406 C 1.171875 21.804688 0.855469 21.316406 0.589844 20.632812 C 0.386719 20.117188 0.152344 19.34375 0.0859375 17.914062 C 0.015625 16.371094 0 15.910156 0 12 C 0 8.09375 0.015625 7.628906 0.0859375 6.085938 C 0.148438 4.660156 0.390625 3.882812 0.589844 3.367188 C 0.855469 2.683594 1.171875 2.195312 1.683594 1.683594 C 2.195312 1.171875 2.683594 0.851562 3.367188 0.589844 C 3.882812 0.386719 4.65625 0.148438 6.085938 0.0859375 C 7.628906 0.015625 8.09375 0 12 0 C 15.910156 0 16.371094 0.015625 17.914062 0.0859375 C 19.34375 0.148438 20.117188 0.390625 20.632812 0.589844 C 21.316406 0.851562 21.804688 1.171875 22.316406 1.683594 C 22.828125 2.195312 23.144531 2.683594 23.410156 3.367188 C 23.613281 3.882812 23.851562 4.65625 23.914062 6.085938 C 23.984375 7.628906 24 8.089844 24 12 C 24 15.90625 23.984375 16.371094 23.914062 17.914062 C 23.851562 19.34375 23.609375 20.117188 23.410156 20.632812 C 23.144531 21.316406 22.828125 21.804688 22.316406 22.316406 C 21.804688 22.828125 21.316406 23.144531 20.632812 23.410156 C 20.117188 23.613281 19.34375 23.851562 17.914062 23.914062 C 16.371094 23.984375 15.910156 24 12 24 C 8.09375 24 7.628906 23.988281 6.085938 23.914062 "/>
<path style=" stroke:none;fill-rule:nonzero;fill:url(#radial1);" d="M 6.085938 23.914062 C 4.660156 23.851562 3.882812 23.613281 3.367188 23.410156 C 2.683594 23.144531 2.195312 22.828125 1.683594 22.316406 C 1.171875 21.804688 0.855469 21.316406 0.589844 20.632812 C 0.386719 20.117188 0.152344 19.34375 0.0859375 17.914062 C 0.015625 16.371094 0 15.910156 0 12 C 0 8.09375 0.015625 7.628906 0.0859375 6.085938 C 0.148438 4.660156 0.390625 3.882812 0.589844 3.367188 C 0.855469 2.683594 1.171875 2.195312 1.683594 1.683594 C 2.195312 1.171875 2.683594 0.851562 3.367188 0.589844 C 3.882812 0.386719 4.65625 0.148438 6.085938 0.0859375 C 7.628906 0.015625 8.09375 0 12 0 C 15.910156 0 16.371094 0.015625 17.914062 0.0859375 C 19.34375 0.148438 20.117188 0.390625 20.632812 0.589844 C 21.316406 0.851562 21.804688 1.171875 22.316406 1.683594 C 22.828125 2.195312 23.144531 2.683594 23.410156 3.367188 C 23.613281 3.882812 23.851562 4.65625 23.914062 6.085938 C 23.984375 7.628906 24 8.089844 24 12 C 24 15.90625 23.984375 16.371094 23.914062 17.914062 C 23.851562 19.34375 23.609375 20.117188 23.410156 20.632812 C 23.144531 21.316406 22.828125 21.804688 22.316406 22.316406 C 21.804688 22.828125 21.316406 23.144531 20.632812 23.410156 C 20.117188 23.613281 19.34375 23.851562 17.914062 23.914062 C 16.371094 23.984375 15.910156 24 12 24 C 8.09375 24 7.628906 23.988281 6.085938 23.914062 "/>
<path style=" stroke:none;fill-rule:nonzero;fill:rgb(100%,100%,100%);fill-opacity:1;" d="M 9.054688 12.050781 C 9.054688 10.410156 10.382812 9.078125 12.023438 9.078125 C 13.667969 9.078125 14.996094 10.410156 14.996094 12.050781 C 14.996094 13.691406 13.667969 15.023438 12.023438 15.023438 C 10.382812 15.023438 9.054688 13.691406 9.054688 12.050781 M 7.445312 12.050781 C 7.445312 14.578125 9.496094 16.628906 12.023438 16.628906 C 14.554688 16.628906 16.601562 14.578125 16.601562 12.050781 C 16.601562 9.523438 14.554688 7.472656 12.023438 7.472656 C 9.496094 7.472656 7.445312 9.523438 7.445312 12.050781 M 15.714844 7.292969 C 15.714844 7.882812 16.191406 8.363281 16.785156 8.363281 C 17.375 8.363281 17.855469 7.882812 17.855469 7.292969 C 17.855469 6.703125 17.375 6.222656 16.785156 6.222656 C 16.195312 6.222656 15.714844 6.699219 15.714844 7.292969 M 8.421875 19.308594 C 7.554688 19.269531 7.082031 19.125 6.765625 19.003906 C 6.351562 18.839844 6.054688 18.648438 5.742188 18.335938 C 5.429688 18.023438 5.234375 17.726562 5.074219 17.308594 C 4.953125 16.996094 4.808594 16.523438 4.769531 15.65625 C 4.726562 14.714844 4.714844 14.433594 4.714844 12.050781 C 4.714844 9.671875 4.726562 9.390625 4.769531 8.449219 C 4.808594 7.578125 4.953125 7.105469 5.074219 6.792969 C 5.238281 6.375 5.429688 6.078125 5.742188 5.765625 C 6.054688 5.453125 6.351562 5.261719 6.765625 5.101562 C 7.082031 4.976562 7.554688 4.832031 8.421875 4.792969 C 9.363281 4.75 9.644531 4.742188 12.023438 4.742188 C 14.40625 4.742188 14.6875 4.75 15.628906 4.792969 C 16.496094 4.832031 16.96875 4.980469 17.285156 5.101562 C 17.699219 5.261719 17.996094 5.457031 18.308594 5.765625 C 18.621094 6.078125 18.8125 6.375 18.976562 6.792969 C 19.097656 7.105469 19.242188 7.578125 19.28125 8.449219 C 19.328125 9.390625 19.335938 9.671875 19.335938 12.050781 C 19.335938 14.433594 19.328125 14.714844 19.28125 15.65625 C 19.242188 16.523438 19.097656 16.996094 18.976562 17.308594 C 18.8125 17.726562 18.621094 18.023438 18.308594 18.335938 C 17.996094 18.648438 17.699219 18.839844 17.285156 19.003906 C 16.96875 19.125 16.496094 19.269531 15.628906 19.308594 C 14.6875 19.351562 14.40625 19.359375 12.023438 19.359375 C 9.644531 19.359375 9.363281 19.351562 8.421875 19.308594 M 8.347656 3.1875 C 7.398438 3.230469 6.75 3.382812 6.183594 3.601562 C 5.597656 3.832031 5.101562 4.136719 4.605469 4.632812 C 4.109375 5.128906 3.804688 5.625 3.578125 6.210938 C 3.355469 6.777344 3.207031 7.425781 3.164062 8.375 C 3.117188 9.324219 3.109375 9.628906 3.109375 12.050781 C 3.109375 14.472656 3.117188 14.777344 3.164062 15.726562 C 3.207031 16.675781 3.355469 17.324219 3.578125 17.890625 C 3.804688 18.476562 4.109375 18.976562 4.605469 19.46875 C 5.101562 19.964844 5.597656 20.269531 6.183594 20.5 C 6.753906 20.71875 7.398438 20.871094 8.347656 20.914062 C 9.300781 20.957031 9.605469 20.96875 12.023438 20.96875 C 14.445312 20.96875 14.75 20.957031 15.699219 20.914062 C 16.648438 20.871094 17.296875 20.71875 17.863281 20.5 C 18.453125 20.269531 18.949219 19.964844 19.445312 19.46875 C 19.941406 18.976562 20.246094 18.476562 20.472656 17.890625 C 20.691406 17.324219 20.84375 16.675781 20.886719 15.726562 C 20.929688 14.777344 20.941406 14.472656 20.941406 12.050781 C 20.941406 9.628906 20.929688 9.324219 20.886719 8.375 C 20.84375 7.425781 20.691406 6.777344 20.472656 6.210938 C 20.246094 5.625 19.941406 5.128906 19.445312 4.632812 C 18.949219 4.136719 18.453125 3.832031 17.867188 3.601562 C 17.296875 3.382812 16.648438 3.230469 15.703125 3.1875 C 14.75 3.144531 14.445312 3.136719 12.027344 3.136719 C 9.605469 3.136719 9.300781 3.144531 8.347656 3.1875 "/>
</g>
</svg>
