<?xml version="1.0" encoding="UTF-8"?>
<svg xmlns="http://www.w3.org/2000/svg" xmlns:xlink="http://www.w3.org/1999/xlink" width="24px" height="24px" viewBox="0 0 24 24" version="1.1">
<g id="surface1">
<path style=" stroke:none;fill-rule:evenodd;fill:rgb(0%,40.392157%,60.784316%);fill-opacity:1;" d="M 2.125 0.148438 C 0.804688 0.148438 0.148438 0.804688 0.148438 2.125 L 0.148438 21.875 C 0.148438 23.195312 0.804688 23.851562 2.125 23.851562 L 21.875 23.851562 C 23.195312 23.851562 23.851562 23.195312 23.851562 21.875 L 23.851562 2.125 C 23.851562 0.804688 23.195312 0.148438 21.875 0.148438 Z M 2.125 0.148438 "/>
<path style=" stroke:none;fill-rule:evenodd;fill:rgb(100%,100%,100%);fill-opacity:1;" d="M 7.066406 4.742188 C 7.511719 4.742188 7.855469 4.882812 8.109375 5.171875 C 8.359375 5.457031 8.496094 5.820312 8.511719 6.25 C 8.511719 6.679688 8.371094 7.039062 8.085938 7.332031 C 7.800781 7.625 7.414062 7.773438 6.917969 7.773438 L 6.902344 7.773438 C 6.421875 7.773438 6.039062 7.625 5.753906 7.332031 C 5.476562 7.039062 5.332031 6.679688 5.332031 6.25 C 5.332031 5.8125 5.488281 5.449219 5.800781 5.167969 C 6.109375 4.882812 6.535156 4.742188 7.066406 4.742188 Z M 5.519531 8.972656 L 8.5625 8.972656 L 8.5625 17.777344 L 5.519531 17.777344 Z M 19.554688 12.730469 L 19.554688 17.777344 L 16.515625 17.777344 L 16.515625 13.070312 C 16.515625 12.46875 16.394531 11.988281 16.160156 11.625 C 15.921875 11.261719 15.527344 11.082031 14.96875 11.082031 C 14.542969 11.082031 14.203125 11.191406 13.945312 11.414062 C 13.691406 11.640625 13.507812 11.882812 13.394531 12.152344 C 13.359375 12.25 13.335938 12.359375 13.324219 12.476562 C 13.3125 12.605469 13.304688 12.730469 13.308594 12.859375 L 13.308594 17.777344 L 10.246094 17.777344 L 10.265625 13.683594 L 10.265625 10.695312 L 10.253906 9.585938 L 10.246094 8.972656 L 13.304688 8.972656 L 13.304688 10.21875 L 13.289062 10.253906 L 13.304688 10.253906 L 13.304688 10.21875 C 13.414062 10.050781 13.535156 9.886719 13.671875 9.738281 C 13.820312 9.570312 14 9.414062 14.21875 9.269531 C 14.433594 9.125 14.695312 9.007812 15 8.914062 C 15.308594 8.820312 15.65625 8.773438 16.054688 8.773438 C 16.550781 8.773438 17.011719 8.847656 17.441406 9.003906 C 17.875 9.160156 18.242188 9.40625 18.554688 9.738281 C 18.867188 10.070312 19.113281 10.480469 19.289062 10.972656 C 19.46875 11.46875 19.554688 12.050781 19.554688 12.730469 Z M 19.554688 12.730469 "/>
<path style=" stroke:none;fill-rule:evenodd;fill:rgb(100%,100%,100%);fill-opacity:0.188235;" d="M 0.25 0.949219 L 23.433594 23.503906 C 23.691406 23.265625 23.851562 22.921875 23.851562 22.542969 L 23.851562 1.457031 C 23.851562 0.734375 23.265625 0.148438 22.542969 0.148438 L 1.457031 0.148438 C 0.914062 0.148438 0.449219 0.476562 0.25 0.949219 Z M 0.25 0.949219 "/>
</g>
</svg>
