<?xml version="1.0" encoding="UTF-8"?>
<svg xmlns="http://www.w3.org/2000/svg" xmlns:xlink="http://www.w3.org/1999/xlink" width="24px" height="27px" viewBox="0 0 24 27" version="1.1">
<g id="surface1">
<path style=" stroke:none;fill-rule:nonzero;fill:rgb(96.862745%,96.862745%,96.862745%);fill-opacity:1;" d="M 22.285156 1.6875 L 1.707031 1.6875 C 0.765625 1.6875 0 2.453125 0 3.390625 L 0 23.609375 C 0 24.546875 0.765625 25.3125 1.707031 25.3125 L 22.285156 25.3125 C 23.230469 25.3125 24 24.546875 24 23.609375 L 24 3.390625 C 24 2.453125 23.230469 1.6875 22.285156 1.6875 Z M 7.253906 21.9375 L 3.695312 21.9375 L 3.695312 10.664062 L 7.257812 10.664062 L 7.257812 21.9375 Z M 5.476562 9.125 C 4.332031 9.125 3.414062 8.210938 3.414062 7.09375 C 3.414062 5.976562 4.332031 5.0625 5.476562 5.0625 C 6.609375 5.0625 7.539062 5.976562 7.539062 7.09375 C 7.539062 8.214844 6.617188 9.125 5.476562 9.125 Z M 20.585938 21.9375 L 17.03125 21.9375 L 17.03125 16.453125 C 17.03125 15.144531 17.003906 13.464844 15.183594 13.464844 C 13.328125 13.464844 13.042969 14.886719 13.042969 16.359375 L 13.042969 21.9375 L 9.488281 21.9375 L 9.488281 10.664062 L 12.898438 10.664062 L 12.898438 12.203125 L 12.949219 12.203125 C 13.425781 11.316406 14.585938 10.382812 16.316406 10.382812 C 19.917969 10.382812 20.585938 12.71875 20.585938 15.757812 Z M 20.585938 21.9375 "/>
</g>
</svg>
