<?xml version="1.0" encoding="UTF-8"?>
<svg xmlns="http://www.w3.org/2000/svg" xmlns:xlink="http://www.w3.org/1999/xlink" width="29px" height="20px" viewBox="0 0 28 20" version="1.1">
<g id="surface1">
<path style=" stroke:none;fill-rule:nonzero;fill:rgb(100%,0%,0%);fill-opacity:1;" d="M 25.882812 3.199219 C 25.59375 2.007812 24.75 1.078125 23.683594 0.757812 C 21.75 0.175781 13.988281 0.175781 13.988281 0.175781 C 13.988281 0.175781 6.222656 0.191406 4.289062 0.769531 C 3.222656 1.09375 2.378906 2.027344 2.09375 3.214844 C 1.503906 7.015625 1.28125 12.816406 2.105469 16.464844 C 2.394531 17.65625 3.234375 18.582031 4.304688 18.90625 C 6.234375 19.492188 14.003906 19.492188 14.003906 19.492188 C 14.003906 19.492188 21.769531 19.492188 23.699219 18.90625 C 24.773438 18.582031 25.609375 17.65625 25.898438 16.464844 C 26.515625 12.65625 26.703125 6.863281 25.882812 3.199219 Z M 25.882812 3.199219 "/>
<path style=" stroke:none;fill-rule:nonzero;fill:rgb(100%,100%,100%);fill-opacity:1;" d="M 11.511719 13.96875 L 17.960938 9.832031 L 11.511719 5.691406 Z M 11.511719 13.96875 "/>
</g>
</svg>
